<svg xmlns="http://www.w3.org/2000/svg" viewBox="0 0 551.034 551.034" width="24" height="24">
  <linearGradient id="a" x1="275.517" x2="275.517" y1="0" y2="551.034" gradientUnits="userSpaceOnUse">
    <stop offset="0" stop-color="#f09433"/>
    <stop offset="0.25" stop-color="#e6683c"/>
    <stop offset="0.5" stop-color="#dc2743"/>
    <stop offset="0.75" stop-color="#cc2366"/>
    <stop offset="1" stop-color="#bc1888"/>
  </linearGradient>
  <path fill="url(#a)" d="M387.344 0H163.69C73.248 0 0 73.248 0 163.69v223.655c0 90.44 73.248 163.69 163.69 163.69h223.655c90.44 0 163.69-73.248 163.69-163.69V163.69C551.034 73.248 477.784 0 387.344 0zm82.865 387.344c0 45.724-37.14 82.865-82.865 82.865H163.69c-45.724 0-82.865-37.14-82.865-82.865V163.69c0-45.724 37.14-82.865 82.865-82.865h223.655c45.724 0 82.865 37.14 82.865 82.865v223.655z"/>
  <path fill="#fff" d="M275.517 133.58c-78.408 0-141.937 63.528-141.937 141.937s63.528 141.937 141.937 141.937 141.937-63.528 141.937-141.937S353.925 133.58 275.517 133.58zm0 233.203c-50.448 0-91.265-40.816-91.265-91.265s40.816-91.265 91.265-91.265 91.265 40.816 91.265 91.265-40.816 91.265-91.265 91.265zm173.96-237.518c0 19.338-15.673 35.01-35.01 35.01s-35.01-15.673-35.01-35.01 15.673-35.01 35.01-35.01 35.01 15.673 35.01 35.01z"/>
</svg>
