<svg xmlns="http://www.w3.org/2000/svg" width="24" height="24" fill="#0077b5" viewBox="0 0 24 24">
  <path d="M20.447 20.452h-3.554v-5.569c0-1.328-.023-3.037-1.853-3.037-1.854 0-2.139 1.448-2.139 2.943v5.663h-3.554V9h3.415v1.561h.049c.476-.9 1.637-1.853 3.372-1.853 3.602 0 4.267 2.371 4.267 5.455v6.289zM5.337 7.433c-1.144 0-2.072-.929-2.072-2.072 0-1.143.928-2.071 2.072-2.071s2.072.928 2.072 2.071c0 1.143-.928 2.072-2.072 2.072zm1.777 13.019H3.56V9h3.554v11.452zM22.225 0H1.771C.792 0 0 .771 0 1.723v20.554C0 23.229.792 24 1.771 24h20.451c.979 0 1.778-.771 1.778-1.723V1.723C24 .771 23.204 0 22.225 0z"/>
</svg>
