<svg xmlns="http://www.w3.org/2000/svg" width="24" height="24" fill="#25D366" viewBox="0 0 24 24">
  <path d="M20.52 3.48A11.92 11.92 0 0012 0C5.37 0 0 5.37 0 12c0 2.09.54 4.05 1.48 5.77L0 24l6.36-1.48A11.94 11.94 0 0012 24c6.63 0 12-5.37 12-12 0-3.19-1.24-6.19-3.48-8.52zM12 22c-1.88 0-3.63-.5-5.19-1.41l-.37-.22-3.77.89.8-3.67-.24-.38A9.99 9.99 0 012 12c0-5.52 4.48-10 10-10s10 4.48 10 10-4.48 10-10 10zm5.07-7.85c-.27-.13-1.6-.79-1.85-.88-.25-.09-.43-.13-.61.13-.18.27-.7.88-.85 1.06-.16.18-.31.2-.58.07-.27-.13-1.14-.42-2.17-1.34-.8-.71-1.34-1.6-1.5-1.87-.16-.27-.02-.42.12-.55.13-.13.27-.31.4-.47.13-.16.18-.27.27-.45.09-.18.04-.34-.02-.48-.07-.13-.61-1.48-.84-2.03-.22-.53-.45-.45-.61-.45-.16 0-.34-.02-.52-.02s-.48.07-.73.34c-.25.27-.97.95-.97 2.31s1 .48 1.14 2.03c.13 1.55 1.55 2.73 1.77 2.92.22.18 3.05 4.68 7.39 6.55.88.38 1.57.61 2.11.77.88.27 1.69.23 2.34.14.71-.09 2.18-.88 2.49-1.73.31-.85.31-1.57.22-1.73-.09-.16-.34-.25-.7-.38z"/>
</svg>
